<svg width="17" height="17" viewBox="0 0 17 17" fill="none" xmlns="http://www.w3.org/2000/svg">
<path d="M11.3332 4.95837H11.3403M2.40817 12.75H8.49984C10.0027 12.75 11.4441 12.153 12.5068 11.0903C13.5695 10.0276 14.1665 8.58626 14.1665 7.08337V4.95837M14.1665 4.95837C14.1681 4.35481 13.9769 3.76651 13.6208 3.27919C13.2647 2.79187 12.7623 2.43101 12.1867 2.24918C11.6112 2.06735 10.9927 2.07406 10.4212 2.26833C9.84977 2.4626 9.35529 2.83428 9.00984 3.3292L1.4165 14.1667M14.1665 4.95837L15.5832 5.31254L14.1665 5.6667M7.08317 12.75V14.875M9.9165 12.573V14.875M4.95817 12.75C5.83163 12.75 6.68386 12.4808 7.39889 11.9792C8.11392 11.4775 8.65702 10.7677 8.95428 9.9464C9.25153 9.12507 9.28851 8.23211 9.06017 7.38902C8.83184 6.54594 8.34928 5.79368 7.67817 5.23462" stroke="black" stroke-width="2" stroke-linecap="round" stroke-linejoin="round"/>
</svg>
