<svg width="17" height="17" viewBox="0 0 17 17" fill="none" xmlns="http://www.w3.org/2000/svg">
<path d="M8.49984 8.49996H8.50692M11.3332 4.24996V2.83329C11.3332 2.45757 11.1839 2.09723 10.9182 1.83156C10.6526 1.56588 10.2922 1.41663 9.9165 1.41663H7.08317C6.70745 1.41663 6.34711 1.56588 6.08144 1.83156C5.81576 2.09723 5.6665 2.45757 5.6665 2.83329V4.24996M15.5832 9.20829C13.4814 10.5959 11.0184 11.3356 8.49984 11.3356C5.98132 11.3356 3.51828 10.5959 1.4165 9.20829M2.83317 4.24996H14.1665C14.9489 4.24996 15.5832 4.88422 15.5832 5.66663V12.75C15.5832 13.5324 14.9489 14.1666 14.1665 14.1666H2.83317C2.05077 14.1666 1.4165 13.5324 1.4165 12.75V5.66663C1.4165 4.88422 2.05077 4.24996 2.83317 4.24996Z" stroke="black" stroke-width="2" stroke-linecap="round" stroke-linejoin="round"/>
</svg>
