<svg width="17" height="17" viewBox="0 0 17 17" fill="none" xmlns="http://www.w3.org/2000/svg">
<g clip-path="url(#clip0_122_465)">
<path d="M12.6932 9.91663L15.1723 7.43747C15.4352 7.14598 15.5806 6.76744 15.5806 6.37497C15.5806 5.98249 15.4352 5.60395 15.1723 5.31247L11.6307 1.82747C11.3392 1.56465 10.9606 1.41919 10.5682 1.41919C10.1757 1.41919 9.79715 1.56465 9.50567 1.82747L7.08317 4.24997M4.24984 12.75H4.25692M7.08317 9.91663H7.09025M10.6248 4.24997H10.6319M12.7498 6.37497H12.7569M2.83317 7.0833H8.49984C9.28224 7.0833 9.9165 7.71756 9.9165 8.49997V14.1666C9.9165 14.949 9.28224 15.5833 8.49984 15.5833H2.83317C2.05077 15.5833 1.4165 14.949 1.4165 14.1666V8.49997C1.4165 7.71756 2.05077 7.0833 2.83317 7.0833Z" stroke="#E1E1E1" stroke-width="2" stroke-linecap="round" stroke-linejoin="round"/>
</g>
<defs>
<clipPath id="clip0_122_465">
<rect width="17" height="17" fill="white"/>
</clipPath>
</defs>
</svg>
