<svg width="17" height="17" viewBox="0 0 17 17" fill="none" xmlns="http://www.w3.org/2000/svg">
<path d="M6.02067 10.2708C6.49032 10.2708 6.94074 10.0843 7.27284 9.75217C7.60493 9.42007 7.7915 8.96965 7.7915 8.5C7.7915 7.5225 7.43734 7.08333 7.08317 6.375C6.32384 4.85704 6.9245 3.50342 8.49984 2.125C8.854 3.89583 9.9165 5.59583 11.3332 6.72917C12.7498 7.8625 13.4582 9.20833 13.4582 10.625C13.4582 11.2761 13.3299 11.9209 13.0807 12.5225C12.8316 13.124 12.4663 13.6706 12.0059 14.1311C11.5455 14.5915 10.9989 14.9567 10.3973 15.2059C9.79574 15.4551 9.15098 15.5833 8.49984 15.5833C7.8487 15.5833 7.20394 15.4551 6.60237 15.2059C6.00079 14.9567 5.45419 14.5915 4.99377 14.1311C4.53334 13.6706 4.16811 13.124 3.91893 12.5225C3.66975 11.9209 3.5415 11.2761 3.5415 10.625C3.5415 9.80829 3.84821 9.00008 4.24984 8.5C4.24984 8.96965 4.43641 9.42007 4.7685 9.75217C5.1006 10.0843 5.55102 10.2708 6.02067 10.2708Z" stroke="black" stroke-width="2" stroke-linecap="round" stroke-linejoin="round"/>
</svg>
