<svg width="17" height="17" viewBox="0 0 17 17" fill="none" xmlns="http://www.w3.org/2000/svg">
<path d="M2.28067 8.5H6.729L7.08317 7.79167L8.49984 10.9792L9.9165 6.02083L10.979 8.5H14.7119M13.4582 9.91667C14.5136 8.8825 15.5832 7.64292 15.5832 6.02083C15.5832 4.98759 15.1727 3.99667 14.4421 3.26606C13.7115 2.53545 12.7206 2.125 11.6873 2.125C10.4407 2.125 9.56234 2.47917 8.49984 3.54167C7.43734 2.47917 6.559 2.125 5.31234 2.125C4.2791 2.125 3.28818 2.53545 2.55757 3.26606C1.82696 3.99667 1.4165 4.98759 1.4165 6.02083C1.4165 7.65 2.479 8.88958 3.5415 9.91667L8.49984 14.875L13.4582 9.91667Z" stroke="black" stroke-width="2" stroke-linecap="round" stroke-linejoin="round"/>
</svg>
