<svg width="26" height="26" viewBox="0 0 26 26" fill="none" xmlns="http://www.w3.org/2000/svg">
<path d="M19.5001 9.75002H21.6667C22.2414 9.75002 22.7925 9.97829 23.1988 10.3846C23.6051 10.791 23.8334 11.3421 23.8334 11.9167V23.8334L19.5001 19.5H13.0001C12.4254 19.5 11.8743 19.2717 11.468 18.8654C11.0617 18.4591 10.8334 17.908 10.8334 17.3334V16.25M15.1667 9.75002C15.1667 10.3247 14.9385 10.8758 14.5321 11.2821C14.1258 11.6884 13.5747 11.9167 13.0001 11.9167H6.50008L2.16675 16.25V4.33335C2.16675 3.75872 2.39502 3.20762 2.80135 2.80129C3.20768 2.39496 3.75878 2.16669 4.33341 2.16669H13.0001C13.5747 2.16669 14.1258 2.39496 14.5321 2.80129C14.9385 3.20762 15.1667 3.75872 15.1667 4.33335V9.75002Z" stroke="#2D2D2D" stroke-width="2" stroke-linecap="round" stroke-linejoin="round"/>
</svg>
