<svg width="17" height="17" viewBox="0 0 17 17" fill="none" xmlns="http://www.w3.org/2000/svg">
<path d="M8.5 2.125C7.65463 2.97038 7.1797 4.11696 7.1797 5.3125C7.1797 6.50804 7.65463 7.65462 8.5 8.5C9.34538 9.34538 10.492 9.82031 11.6875 9.82031C12.883 9.82031 14.0296 9.34538 14.875 8.5C14.875 9.76086 14.5011 10.9934 13.8006 12.0418C13.1001 13.0901 12.1045 13.9072 10.9396 14.3897C9.77473 14.8722 8.49293 14.9985 7.2563 14.7525C6.01967 14.5065 4.88376 13.8994 3.9922 13.0078C3.10064 12.1162 2.49348 10.9803 2.2475 9.7437C2.00152 8.50707 2.12776 7.22527 2.61027 6.06039C3.09278 4.89551 3.90988 3.89988 4.95824 3.19938C6.00661 2.49889 7.23915 2.125 8.5 2.125Z" stroke="black" stroke-width="2" stroke-linecap="round" stroke-linejoin="round"/>
</svg>
