<svg width="17" height="17" viewBox="0 0 17 17" fill="none" xmlns="http://www.w3.org/2000/svg">
<g clip-path="url(#clip0_120_271)">
<path d="M9.56234 4.95835C9.75794 4.95835 9.9165 4.79979 9.9165 4.60419C9.9165 4.40859 9.75794 4.25002 9.56234 4.25002C9.36674 4.25002 9.20817 4.40859 9.20817 4.60419C9.20817 4.79979 9.36674 4.95835 9.56234 4.95835Z" stroke="black" stroke-width="2" stroke-linecap="round" stroke-linejoin="round"/>
<path d="M12.3957 7.79169C12.5913 7.79169 12.7498 7.63312 12.7498 7.43752C12.7498 7.24192 12.5913 7.08335 12.3957 7.08335C12.2001 7.08335 12.0415 7.24192 12.0415 7.43752C12.0415 7.63312 12.2001 7.79169 12.3957 7.79169Z" stroke="black" stroke-width="2" stroke-linecap="round" stroke-linejoin="round"/>
<path d="M6.02067 5.66669C6.21627 5.66669 6.37484 5.50812 6.37484 5.31252C6.37484 5.11692 6.21627 4.95835 6.02067 4.95835C5.82507 4.95835 5.6665 5.11692 5.6665 5.31252C5.6665 5.50812 5.82507 5.66669 6.02067 5.66669Z" stroke="black" stroke-width="2" stroke-linecap="round" stroke-linejoin="round"/>
<path d="M4.604 9.20835C4.7996 9.20835 4.95817 9.04979 4.95817 8.85419C4.95817 8.65859 4.7996 8.50002 4.604 8.50002C4.4084 8.50002 4.24984 8.65859 4.24984 8.85419C4.24984 9.04979 4.4084 9.20835 4.604 9.20835Z" stroke="black" stroke-width="2" stroke-linecap="round" stroke-linejoin="round"/>
<path d="M8.49984 1.41669C4.604 1.41669 1.4165 4.60419 1.4165 8.50002C1.4165 12.3959 4.604 15.5834 8.49984 15.5834C9.15575 15.5834 9.66717 15.0549 9.66717 14.3877C9.66717 14.0781 9.53967 13.7962 9.35763 13.5908C9.15221 13.3861 9.04738 13.129 9.04738 12.7939C9.04469 12.638 9.07342 12.4832 9.13184 12.3386C9.19027 12.1941 9.2772 12.0628 9.38745 11.9525C9.4977 11.8423 9.62902 11.7553 9.77358 11.6969C9.91814 11.6385 10.073 11.6098 10.2289 11.6124H11.6427C13.8038 11.6124 15.5775 9.83948 15.5775 7.67835C15.5584 4.25852 12.368 1.41669 8.49984 1.41669Z" stroke="black" stroke-width="2" stroke-linecap="round" stroke-linejoin="round"/>
</g>
<defs>
<clipPath id="clip0_120_271">
<rect width="17" height="17" fill="white"/>
</clipPath>
</defs>
</svg>
