<svg width="17" height="17" viewBox="0 0 17 17" fill="none" xmlns="http://www.w3.org/2000/svg">
<path d="M4.95817 14.875H12.0415M8.49984 2.125V14.875M2.12484 4.95833H3.5415C4.95817 4.95833 7.08317 4.25 8.49984 3.54167C9.9165 4.25 12.0415 4.95833 13.4582 4.95833H14.8748M11.3332 11.3333L13.4582 5.66667L15.5832 11.3333C14.9669 11.7937 14.2232 12.0417 13.4582 12.0417C12.6932 12.0417 11.9494 11.7937 11.3332 11.3333ZM1.4165 11.3333L3.5415 5.66667L5.6665 11.3333C5.05025 11.7937 4.3065 12.0417 3.5415 12.0417C2.7765 12.0417 2.03275 11.7937 1.4165 11.3333Z" stroke="black" stroke-width="2" stroke-linecap="round" stroke-linejoin="round"/>
</svg>
