<svg width="17" height="17" viewBox="0 0 17 17" fill="none" xmlns="http://www.w3.org/2000/svg">
<path d="M11.3332 14.875V13.4583C11.3332 12.7069 11.0347 11.9862 10.5033 11.4549C9.97195 10.9235 9.25128 10.625 8.49984 10.625H4.24984C3.49839 10.625 2.77772 10.9235 2.24637 11.4549C1.71502 11.9862 1.4165 12.7069 1.4165 13.4583V14.875M15.5832 14.875V13.4583C15.5827 12.8306 15.3738 12.2207 14.9891 11.7246C14.6045 11.2284 14.066 10.874 13.4582 10.7171M11.3332 2.21708C11.9426 2.37313 12.4828 2.72758 12.8686 3.22455C13.2543 3.72153 13.4637 4.33275 13.4637 4.96188C13.4637 5.591 13.2543 6.20222 12.8686 6.6992C12.4828 7.19617 11.9426 7.55062 11.3332 7.70667M9.20817 4.95833C9.20817 6.52314 7.93964 7.79167 6.37484 7.79167C4.81003 7.79167 3.5415 6.52314 3.5415 4.95833C3.5415 3.39353 4.81003 2.125 6.37484 2.125C7.93964 2.125 9.20817 3.39353 9.20817 4.95833Z" stroke="black" stroke-width="2" stroke-linecap="round" stroke-linejoin="round"/>
</svg>
