<svg width="133" height="55" viewBox="0 0 133 55" fill="none" xmlns="http://www.w3.org/2000/svg">
<path d="M30.8772 20.24V32H25.6772V20.8001C25.6772 19.5467 25.4638 18.6134 25.0372 18C24.6105 17.36 23.9172 17.0401 22.9572 17.0401C22.3172 17.0401 21.7572 17.1867 21.2772 17.48C20.7972 17.7467 20.4238 18.1734 20.1572 18.76C19.8905 19.32 19.7572 20.0001 19.7572 20.8001V32H14.5972V20.8001C14.5972 19.5467 14.3838 18.6134 13.9572 18C13.5305 17.36 12.8372 17.0401 11.8772 17.0401C11.2372 17.0401 10.6772 17.1867 10.1972 17.48C9.71716 17.7467 9.34382 18.1734 9.07716 18.76C8.81049 19.32 8.67716 20.0001 8.67716 20.8001V32H3.67716V13.6H8.67716V16.32C9.21049 15.3067 9.91716 14.5334 10.7972 14C11.6772 13.4667 12.7305 13.2 13.9572 13.2C15.3172 13.2 16.4372 13.4667 17.3172 14C18.1972 14.5334 18.8372 15.32 19.2372 16.36C19.9038 15.32 20.7172 14.5334 21.6772 14C22.6638 13.4667 23.7838 13.2 25.0372 13.2C26.3972 13.2 27.5038 13.48 28.3572 14.04C29.2105 14.5734 29.8372 15.3734 30.2372 16.44C30.6638 17.48 30.8772 18.7467 30.8772 20.24Z" fill="#48B2CC"/>
<path d="M44.6618 32.4C42.6618 32.4 40.9152 32.0001 39.4218 31.2001C37.9285 30.4001 36.7685 29.2934 35.9418 27.8801C35.1418 26.4401 34.7418 24.7467 34.7418 22.8001C34.7418 20.8267 35.1418 19.1334 35.9418 17.72C36.7685 16.28 37.9285 15.1734 39.4218 14.4C40.9152 13.6 42.6752 13.2 44.7018 13.2C46.7285 13.2 48.4485 13.5734 49.8618 14.32C51.3018 15.04 52.3952 16.1067 53.1418 17.5201C53.8885 18.9067 54.2618 20.5867 54.2618 22.56C54.2618 22.8 54.2485 23.0534 54.2218 23.32C54.2218 23.5867 54.2085 23.8001 54.1818 23.9601H37.7018V20.76H49.6618L48.2618 22.6C48.3685 22.4401 48.4618 22.2267 48.5418 21.96C48.6485 21.6667 48.7018 21.4267 48.7018 21.24C48.7018 20.3334 48.5285 19.5601 48.1818 18.92C47.8618 18.28 47.3952 17.7734 46.7818 17.4C46.1685 17.0267 45.4485 16.84 44.6218 16.84C43.6085 16.84 42.7552 17.0667 42.0618 17.5201C41.3952 17.9467 40.8752 18.6 40.5018 19.48C40.1552 20.3334 39.9685 21.4 39.9418 22.68C39.9418 23.9067 40.1152 24.9467 40.4618 25.8001C40.8352 26.6534 41.3818 27.3067 42.1018 27.76C42.8218 28.2134 43.6885 28.4401 44.7018 28.4401C45.8485 28.4401 46.8218 28.2267 47.6218 27.8001C48.4485 27.3467 49.1285 26.6801 49.6618 25.8001L54.1818 27.2001C53.2218 28.9334 51.9418 30.2401 50.3418 31.1201C48.7685 31.9734 46.8752 32.4 44.6618 32.4Z" fill="#48B2CC"/>
<path d="M58.0493 0.800049H63.0493V32H58.0493V0.800049ZM69.8093 13.6H76.0093L68.0893 21.2001L76.8093 32H70.6493L61.8893 21.2001L69.8093 13.6Z" fill="#27AE60"/>
<path d="M77.7106 22.8001C77.7106 20.8801 78.1506 19.2 79.0306 17.76C79.9373 16.32 81.1506 15.2 82.6706 14.4C84.2173 13.6 85.9639 13.2 87.9106 13.2C89.8573 13.2 91.5906 13.6 93.1106 14.4C94.6573 15.2 95.8706 16.32 96.7506 17.76C97.6573 19.2 98.1106 20.8801 98.1106 22.8001C98.1106 24.6934 97.6573 26.3734 96.7506 27.84C95.8706 29.28 94.6573 30.4001 93.1106 31.2001C91.5906 32.0001 89.8573 32.4 87.9106 32.4C85.9639 32.4 84.2173 32.0001 82.6706 31.2001C81.1506 30.4001 79.9373 29.28 79.0306 27.84C78.1506 26.3734 77.7106 24.6934 77.7106 22.8001ZM82.9906 22.8001C82.9906 23.8401 83.2039 24.76 83.6306 25.56C84.0839 26.3334 84.6839 26.9467 85.4306 27.4C86.1773 27.8267 87.0039 28.0401 87.9106 28.0401C88.8173 28.0401 89.6439 27.8267 90.3906 27.4C91.1373 26.9467 91.7239 26.3334 92.1506 25.56C92.6039 24.76 92.8306 23.8401 92.8306 22.8001C92.8306 21.7601 92.6039 20.84 92.1506 20.04C91.7239 19.24 91.1373 18.6267 90.3906 18.2C89.6439 17.7734 88.8173 17.56 87.9106 17.56C87.0039 17.56 86.1773 17.7734 85.4306 18.2C84.6839 18.6267 84.0839 19.24 83.6306 20.04C83.2039 20.84 82.9906 21.7601 82.9906 22.8001Z" fill="#27AE60"/>
<path d="M101.437 6.48005C101.437 5.62672 101.744 4.93338 102.357 4.40005C102.971 3.84005 103.704 3.56005 104.557 3.56005C105.411 3.56005 106.131 3.84005 106.717 4.40005C107.331 4.93338 107.637 5.62672 107.637 6.48005C107.637 7.30672 107.331 8.00005 106.717 8.56005C106.131 9.12005 105.411 9.40005 104.557 9.40005C103.704 9.40005 102.971 9.12005 102.357 8.56005C101.744 8.00005 101.437 7.30672 101.437 6.48005ZM98.3175 35.5601C98.5575 35.8534 98.8375 36.0934 99.1575 36.2801C99.4508 36.4667 99.7975 36.5601 100.197 36.5601C100.624 36.5601 100.984 36.4534 101.277 36.2401C101.571 36.0267 101.784 35.6934 101.917 35.2401C102.051 34.8134 102.117 34.2534 102.117 33.5601V13.6H107.117V34.7601C107.117 36.0667 106.877 37.2134 106.397 38.2001C105.917 39.1867 105.197 39.9467 104.237 40.48C103.277 41.04 102.091 41.32 100.677 41.32C99.9041 41.32 99.2375 41.2267 98.6775 41.0401C98.0908 40.8534 97.5975 40.6134 97.1975 40.32C96.7708 40.0267 96.3975 39.7334 96.0775 39.4401L98.3175 35.5601Z" fill="#E67E22"/>
<path d="M116.263 26.2801C116.263 26.8134 116.397 27.28 116.663 27.68C116.93 28.0534 117.29 28.3467 117.743 28.56C118.223 28.7467 118.743 28.84 119.303 28.84C120.103 28.84 120.823 28.6801 121.463 28.3601C122.103 28.0134 122.623 27.5334 123.023 26.92C123.423 26.28 123.623 25.52 123.623 24.64L124.263 27.0401C124.263 28.2134 123.93 29.2 123.263 30C122.623 30.8 121.783 31.4001 120.743 31.8001C119.73 32.2001 118.663 32.4 117.543 32.4C116.397 32.4 115.33 32.1734 114.343 31.7201C113.357 31.2667 112.557 30.6134 111.943 29.76C111.357 28.88 111.063 27.8134 111.063 26.56C111.063 24.7734 111.69 23.36 112.943 22.32C114.197 21.28 115.97 20.76 118.263 20.76C119.437 20.76 120.463 20.88 121.343 21.12C122.25 21.36 123.01 21.6534 123.623 22C124.237 22.3467 124.677 22.68 124.943 23V25.4C124.223 24.8667 123.41 24.4667 122.503 24.2001C121.623 23.9334 120.69 23.8 119.703 23.8C118.903 23.8 118.25 23.9067 117.743 24.1201C117.237 24.3067 116.863 24.5867 116.623 24.96C116.383 25.3067 116.263 25.7467 116.263 26.2801ZM114.263 18.8L112.343 15.28C113.303 14.7734 114.477 14.2934 115.863 13.84C117.25 13.36 118.797 13.12 120.503 13.12C122.077 13.12 123.477 13.3467 124.703 13.8C125.93 14.2534 126.89 14.92 127.583 15.8C128.277 16.6534 128.623 17.7067 128.623 18.9601V32H123.623V20.04C123.623 19.5334 123.543 19.1067 123.383 18.76C123.223 18.3867 122.97 18.08 122.623 17.84C122.303 17.6 121.917 17.4267 121.463 17.32C121.01 17.2134 120.503 17.16 119.943 17.16C119.09 17.16 118.277 17.2534 117.503 17.44C116.73 17.6267 116.063 17.8534 115.503 18.1201C114.943 18.3867 114.53 18.6134 114.263 18.8Z" fill="#E67E22"/>
<path d="M1.99762 54.8601H0.307617V46.0201H1.99762V54.8601ZM6.91162 49.0101C6.91162 49.6861 6.77728 50.2624 6.50862 50.7391C6.23995 51.2157 5.88462 51.5754 5.44262 51.8181C5.00928 52.0607 4.54128 52.182 4.03862 52.182C3.52728 52.182 3.08095 52.052 2.69962 51.792C2.32695 51.532 2.03662 51.1637 1.82862 50.687C1.62928 50.2104 1.52962 49.6514 1.52962 49.0101C1.52962 48.3601 1.62928 47.801 1.82862 47.333C2.03662 46.8564 2.32695 46.4881 2.69962 46.2281C3.08095 45.9681 3.52728 45.8381 4.03862 45.8381C4.54128 45.8381 5.00928 45.9594 5.44262 46.202C5.88462 46.4447 6.23995 46.8044 6.50862 47.2811C6.77728 47.7491 6.91162 48.3254 6.91162 49.0101ZM5.16962 49.0101C5.16962 48.6547 5.09595 48.3514 4.94862 48.1C4.80128 47.8487 4.60195 47.658 4.35062 47.528C4.10795 47.398 3.83928 47.333 3.54462 47.333C3.29328 47.333 3.04628 47.398 2.80362 47.528C2.56962 47.6494 2.37462 47.8357 2.21862 48.0871C2.07128 48.3384 1.99762 48.6461 1.99762 49.0101C1.99762 49.3741 2.07128 49.6817 2.21862 49.933C2.37462 50.1844 2.56962 50.3751 2.80362 50.5051C3.04628 50.6264 3.29328 50.687 3.54462 50.687C3.83928 50.687 4.10795 50.6221 4.35062 50.4921C4.60195 50.3621 4.80128 50.1714 4.94862 49.9201C5.09595 49.6687 5.16962 49.3654 5.16962 49.0101Z" fill="#48B2CC"/>
<path d="M9.36293 50.141C9.36293 50.3144 9.40626 50.4661 9.49293 50.5961C9.5796 50.7174 9.6966 50.8127 9.84393 50.882C9.99993 50.9427 10.1689 50.973 10.3509 50.973C10.6109 50.973 10.8449 50.9211 11.0529 50.8171C11.2609 50.7044 11.4299 50.5484 11.5599 50.349C11.6899 50.141 11.7549 49.8941 11.7549 49.6081L11.9629 50.3881C11.9629 50.7694 11.8546 51.0901 11.6379 51.3501C11.4299 51.6101 11.1569 51.8051 10.8189 51.9351C10.4896 52.0651 10.1429 52.1301 9.77893 52.1301C9.40626 52.1301 9.0596 52.0564 8.73893 51.909C8.41826 51.7617 8.15826 51.5494 7.95893 51.272C7.76826 50.986 7.67293 50.6394 7.67293 50.2321C7.67293 49.6514 7.8766 49.192 8.28393 48.854C8.69126 48.516 9.2676 48.347 10.0129 48.347C10.3943 48.347 10.7279 48.3861 11.0139 48.4641C11.3086 48.5421 11.5556 48.6374 11.7549 48.75C11.9543 48.8627 12.0973 48.9711 12.1839 49.0751V49.855C11.9499 49.6817 11.6856 49.5517 11.3909 49.465C11.1049 49.3784 10.8016 49.335 10.4809 49.335C10.2209 49.335 10.0086 49.3697 9.84393 49.439C9.67926 49.4997 9.55793 49.5907 9.47993 49.7121C9.40193 49.8247 9.36293 49.9677 9.36293 50.141ZM8.71293 47.71L8.08893 46.5661C8.40093 46.4014 8.78226 46.2454 9.23293 46.098C9.6836 45.942 10.1863 45.864 10.7409 45.864C11.2523 45.864 11.7073 45.9377 12.1059 46.085C12.5046 46.2324 12.8166 46.4491 13.0419 46.7351C13.2673 47.0124 13.3799 47.3547 13.3799 47.7621V52H11.7549V48.113C11.7549 47.9484 11.7289 47.8097 11.6769 47.697C11.6249 47.5757 11.5426 47.476 11.4299 47.398C11.3259 47.32 11.2003 47.2637 11.0529 47.229C10.9056 47.1944 10.7409 47.1771 10.5589 47.1771C10.2816 47.1771 10.0173 47.2074 9.76593 47.2681C9.5146 47.3287 9.29793 47.4024 9.11593 47.4891C8.93393 47.5757 8.7996 47.6494 8.71293 47.71Z" fill="#48B2CC"/>
<path d="M16.6882 49.66C16.6882 50.05 16.7662 50.3534 16.9222 50.57C17.0782 50.778 17.3296 50.882 17.6762 50.882C17.9189 50.882 18.1269 50.8344 18.3002 50.7391C18.4822 50.6351 18.6209 50.4921 18.7162 50.3101C18.8202 50.1281 18.8722 49.9114 18.8722 49.66V46.0201H20.5492V52H18.8722V51.09C18.6816 51.428 18.4389 51.688 18.1442 51.87C17.8496 52.0434 17.4899 52.1301 17.0652 52.1301C16.3546 52.1301 15.8216 51.9264 15.4662 51.5191C15.1196 51.1117 14.9462 50.5527 14.9462 49.842V46.0201H16.6882V49.66Z" fill="#48B2CC"/>
<path d="M22.5069 49.933C22.7583 50.167 22.9923 50.3577 23.2089 50.5051C23.4256 50.6437 23.6293 50.7477 23.8199 50.8171C24.0193 50.8864 24.2056 50.9211 24.3789 50.9211C24.6043 50.9211 24.7776 50.8734 24.8989 50.778C25.0203 50.674 25.0809 50.5354 25.0809 50.362C25.0809 50.206 25.0289 50.076 24.9249 49.972C24.8296 49.8594 24.6866 49.7597 24.4959 49.673C24.3053 49.5864 24.0626 49.4954 23.7679 49.4001C23.4906 49.2961 23.2219 49.1747 22.9619 49.036C22.7019 48.8887 22.4853 48.6981 22.3119 48.4641C22.1473 48.2214 22.0649 47.9137 22.0649 47.541C22.0649 47.1857 22.1603 46.8867 22.3509 46.6441C22.5416 46.3927 22.7973 46.2064 23.1179 46.085C23.4473 45.955 23.8113 45.89 24.2099 45.89C24.5479 45.89 24.8643 45.9334 25.1589 46.0201C25.4536 46.1067 25.7266 46.2237 25.9779 46.371C26.2293 46.5097 26.4503 46.6744 26.6409 46.8651L25.8999 47.905C25.6833 47.671 25.4233 47.4804 25.1199 47.333C24.8253 47.1857 24.5349 47.112 24.2489 47.112C24.0583 47.112 23.9066 47.151 23.7939 47.229C23.6899 47.2984 23.6379 47.4067 23.6379 47.5541C23.6379 47.6841 23.6899 47.801 23.7939 47.905C23.9066 48.0004 24.0626 48.0871 24.2619 48.1651C24.4699 48.2431 24.7039 48.3384 24.9639 48.451C25.2846 48.5724 25.5793 48.7111 25.8479 48.8671C26.1253 49.0144 26.3463 49.2007 26.5109 49.426C26.6756 49.6514 26.7579 49.9461 26.7579 50.3101C26.7579 50.9081 26.5629 51.3761 26.1729 51.7141C25.7829 52.0434 25.2456 52.208 24.5609 52.208C24.1363 52.208 23.7463 52.1517 23.3909 52.0391C23.0443 51.9264 22.7279 51.779 22.4419 51.597C22.1646 51.4064 21.9133 51.2027 21.6879 50.986L22.5069 49.933Z" fill="#48B2CC"/>
<path d="M30.7418 52.1301C30.0918 52.1301 29.5242 52.0001 29.0388 51.7401C28.5535 51.4801 28.1765 51.1204 27.9078 50.661C27.6478 50.193 27.5178 49.6427 27.5178 49.0101C27.5178 48.3687 27.6478 47.8184 27.9078 47.3591C28.1765 46.8911 28.5535 46.5314 29.0388 46.28C29.5242 46.02 30.0962 45.89 30.7548 45.89C31.4135 45.89 31.9725 46.0114 32.4318 46.2541C32.8998 46.4881 33.2552 46.8347 33.4978 47.294C33.7405 47.7447 33.8618 48.2907 33.8618 48.932C33.8618 49.01 33.8575 49.0924 33.8488 49.1791C33.8488 49.2657 33.8445 49.3351 33.8358 49.3871H28.4798V48.347H32.3668L31.9118 48.945C31.9465 48.893 31.9768 48.8237 32.0028 48.737C32.0375 48.6417 32.0548 48.5637 32.0548 48.503C32.0548 48.2084 31.9985 47.9571 31.8858 47.7491C31.7818 47.5411 31.6302 47.3764 31.4308 47.2551C31.2315 47.1337 30.9975 47.0731 30.7288 47.0731C30.3995 47.0731 30.1222 47.1467 29.8968 47.294C29.6802 47.4327 29.5112 47.645 29.3898 47.931C29.2772 48.2084 29.2165 48.5551 29.2078 48.9711C29.2078 49.3697 29.2642 49.7077 29.3768 49.9851C29.4982 50.2624 29.6758 50.4747 29.9098 50.6221C30.1438 50.7694 30.4255 50.8431 30.7548 50.8431C31.1275 50.8431 31.4438 50.7737 31.7038 50.6351C31.9725 50.4877 32.1935 50.2711 32.3668 49.9851L33.8358 50.44C33.5238 51.0034 33.1078 51.4281 32.5878 51.7141C32.0765 51.9914 31.4612 52.1301 30.7418 52.1301Z" fill="#48B2CC"/>
<path d="M34.6403 51.2331C34.6403 50.9384 34.74 50.6914 34.9393 50.4921C35.1473 50.2841 35.403 50.18 35.7063 50.18C36.0183 50.18 36.274 50.2841 36.4733 50.4921C36.6726 50.6914 36.7723 50.9384 36.7723 51.2331C36.7723 51.5104 36.6726 51.7531 36.4733 51.9611C36.274 52.1691 36.0183 52.273 35.7063 52.273C35.403 52.273 35.1473 52.1691 34.9393 51.9611C34.74 51.7531 34.6403 51.5104 34.6403 51.2331Z" fill="#48B2CC"/>
<path d="M44.1334 46.0201V52H42.4824V46.0201H44.1334ZM45.8884 47.7751C45.7757 47.6711 45.6587 47.5931 45.5374 47.541C45.4247 47.4804 45.2817 47.4501 45.1084 47.4501C44.9004 47.4501 44.7227 47.5064 44.5754 47.619C44.428 47.7317 44.3154 47.892 44.2374 48.1C44.168 48.2994 44.1334 48.542 44.1334 48.828L43.6654 48.3601C43.6654 47.8834 43.7564 47.463 43.9384 47.099C44.1204 46.7264 44.3587 46.4317 44.6534 46.215C44.948 45.9897 45.2514 45.877 45.5634 45.877C45.78 45.877 45.9837 45.916 46.1744 45.994C46.3737 46.072 46.534 46.1891 46.6554 46.3451L45.8884 47.7751Z" fill="#27AE60"/>
<path d="M50.1784 52.1301C49.5284 52.1301 48.9607 52.0001 48.4754 51.7401C47.99 51.4801 47.613 51.1204 47.3444 50.661C47.0844 50.193 46.9544 49.6427 46.9544 49.0101C46.9544 48.3687 47.0844 47.8184 47.3444 47.3591C47.613 46.8911 47.99 46.5314 48.4754 46.28C48.9607 46.02 49.5327 45.89 50.1914 45.89C50.85 45.89 51.409 46.0114 51.8684 46.2541C52.3364 46.4881 52.6917 46.8347 52.9344 47.294C53.177 47.7447 53.2984 48.2907 53.2984 48.932C53.2984 49.01 53.294 49.0924 53.2854 49.1791C53.2854 49.2657 53.281 49.3351 53.2724 49.3871H47.9164V48.347H51.8034L51.3484 48.945C51.383 48.893 51.4134 48.8237 51.4394 48.737C51.474 48.6417 51.4914 48.5637 51.4914 48.503C51.4914 48.2084 51.435 47.9571 51.3224 47.7491C51.2184 47.5411 51.0667 47.3764 50.8674 47.2551C50.668 47.1337 50.434 47.0731 50.1654 47.0731C49.836 47.0731 49.5587 47.1467 49.3334 47.294C49.1167 47.4327 48.9477 47.645 48.8264 47.931C48.7137 48.2084 48.653 48.5551 48.6444 48.9711C48.6444 49.3697 48.7007 49.7077 48.8134 49.9851C48.9347 50.2624 49.1124 50.4747 49.3464 50.6221C49.5804 50.7694 49.862 50.8431 50.1914 50.8431C50.564 50.8431 50.8804 50.7737 51.1404 50.6351C51.409 50.4877 51.63 50.2711 51.8034 49.9851L53.2724 50.44C52.9604 51.0034 52.5444 51.4281 52.0244 51.7141C51.513 51.9914 50.8977 52.1301 50.1784 52.1301Z" fill="#27AE60"/>
<path d="M54.0613 46.0201H57.8053V47.437H54.0613V46.0201ZM57.6233 43.55C57.5366 43.42 57.437 43.3334 57.3243 43.2901C57.2203 43.2381 57.1163 43.212 57.0123 43.212C56.8823 43.212 56.7696 43.2467 56.6743 43.316C56.5876 43.3767 56.5183 43.4807 56.4663 43.628C56.4143 43.7754 56.3883 43.9617 56.3883 44.187V52H54.7633V43.8101C54.7633 43.3507 54.8413 42.965 54.9973 42.653C55.1533 42.341 55.3873 42.1027 55.6993 41.938C56.0113 41.7647 56.3926 41.6781 56.8433 41.6781C57.112 41.6781 57.3416 41.7127 57.5323 41.7821C57.723 41.8427 57.8833 41.9207 58.0133 42.016C58.152 42.1114 58.2603 42.2024 58.3383 42.2891L57.6233 43.55Z" fill="#27AE60"/>
<path d="M58.8085 41.8601H60.4985V52H58.8085V41.8601Z" fill="#27AE60"/>
<path d="M64.9811 52.1301C64.3311 52.1301 63.7634 52.0001 63.2781 51.7401C62.7928 51.4801 62.4158 51.1204 62.1471 50.661C61.8871 50.193 61.7571 49.6427 61.7571 49.0101C61.7571 48.3687 61.8871 47.8184 62.1471 47.3591C62.4158 46.8911 62.7928 46.5314 63.2781 46.28C63.7634 46.02 64.3354 45.89 64.9941 45.89C65.6528 45.89 66.2118 46.0114 66.6711 46.2541C67.1391 46.4881 67.4944 46.8347 67.7371 47.294C67.9798 47.7447 68.1011 48.2907 68.1011 48.932C68.1011 49.01 68.0968 49.0924 68.0881 49.1791C68.0881 49.2657 68.0838 49.3351 68.0751 49.3871H62.7191V48.347H66.6061L66.1511 48.945C66.1858 48.893 66.2161 48.8237 66.2421 48.737C66.2768 48.6417 66.2941 48.5637 66.2941 48.503C66.2941 48.2084 66.2378 47.9571 66.1251 47.7491C66.0211 47.5411 65.8694 47.3764 65.6701 47.2551C65.4708 47.1337 65.2368 47.0731 64.9681 47.0731C64.6388 47.0731 64.3614 47.1467 64.1361 47.294C63.9194 47.4327 63.7504 47.645 63.6291 47.931C63.5164 48.2084 63.4558 48.5551 63.4471 48.9711C63.4471 49.3697 63.5034 49.7077 63.6161 49.9851C63.7374 50.2624 63.9151 50.4747 64.1491 50.6221C64.3831 50.7694 64.6648 50.8431 64.9941 50.8431C65.3668 50.8431 65.6831 50.7737 65.9431 50.6351C66.2118 50.4877 66.4328 50.2711 66.6061 49.9851L68.0751 50.44C67.7631 51.0034 67.3471 51.4281 66.8271 51.7141C66.3158 51.9914 65.7004 52.1301 64.9811 52.1301Z" fill="#27AE60"/>
<path d="M70.645 49.0101C70.645 49.3567 70.723 49.6601 70.879 49.9201C71.035 50.1801 71.243 50.3837 71.503 50.5311C71.7717 50.6784 72.0664 50.752 72.387 50.752C72.647 50.752 72.8984 50.7131 73.141 50.6351C73.3837 50.5484 73.6004 50.4357 73.791 50.2971C73.9904 50.1497 74.142 49.9807 74.246 49.7901V51.5191C74.038 51.7097 73.765 51.8614 73.427 51.974C73.0977 52.078 72.712 52.1301 72.27 52.1301C71.6374 52.1301 71.0654 52.0001 70.554 51.7401C70.0514 51.4801 69.6527 51.116 69.358 50.648C69.072 50.1714 68.929 49.6254 68.929 49.0101C68.929 48.3861 69.072 47.8401 69.358 47.3721C69.6527 46.9041 70.0514 46.54 70.554 46.28C71.0654 46.02 71.6374 45.89 72.27 45.89C72.712 45.89 73.0977 45.9464 73.427 46.0591C73.765 46.1631 74.038 46.306 74.246 46.488V48.217C74.142 48.0264 73.986 47.8617 73.778 47.723C73.5787 47.5757 73.3577 47.463 73.115 47.385C72.8724 47.307 72.6297 47.2681 72.387 47.2681C72.0664 47.2681 71.7717 47.346 71.503 47.502C71.243 47.6494 71.035 47.853 70.879 48.113C70.723 48.373 70.645 48.6721 70.645 49.0101Z" fill="#27AE60"/>
<path d="M74.9644 46.0201H78.6564V47.437H74.9644V46.0201ZM75.9914 43.94H77.6164V52H75.9914V43.94Z" fill="#27AE60"/>
<path d="M79.7087 51.2331C79.7087 50.9384 79.8083 50.6914 80.0077 50.4921C80.2157 50.2841 80.4713 50.18 80.7747 50.18C81.0867 50.18 81.3423 50.2841 81.5417 50.4921C81.741 50.6914 81.8407 50.9384 81.8407 51.2331C81.8407 51.5104 81.741 51.7531 81.5417 51.9611C81.3423 52.1691 81.0867 52.273 80.7747 52.273C80.4713 52.273 80.2157 52.1691 80.0077 51.9611C79.8083 51.7531 79.7087 51.5104 79.7087 51.2331Z" fill="#27AE60"/>
<path d="M88.8247 49.0101C88.8247 49.3567 88.9027 49.6601 89.0587 49.9201C89.2147 50.1801 89.4227 50.3837 89.6827 50.5311C89.9514 50.6784 90.2461 50.752 90.5667 50.752C90.8267 50.752 91.0781 50.7131 91.3207 50.6351C91.5634 50.5484 91.7801 50.4357 91.9707 50.2971C92.1701 50.1497 92.3217 49.9807 92.4257 49.7901V51.5191C92.2177 51.7097 91.9447 51.8614 91.6067 51.974C91.2774 52.078 90.8917 52.1301 90.4497 52.1301C89.8171 52.1301 89.2451 52.0001 88.7337 51.7401C88.2311 51.4801 87.8324 51.116 87.5377 50.648C87.2517 50.1714 87.1087 49.6254 87.1087 49.0101C87.1087 48.3861 87.2517 47.8401 87.5377 47.3721C87.8324 46.9041 88.2311 46.54 88.7337 46.28C89.2451 46.02 89.8171 45.89 90.4497 45.89C90.8917 45.89 91.2774 45.9464 91.6067 46.0591C91.9447 46.1631 92.2177 46.306 92.4257 46.488V48.217C92.3217 48.0264 92.1657 47.8617 91.9577 47.723C91.7584 47.5757 91.5374 47.463 91.2947 47.385C91.052 47.307 90.8094 47.2681 90.5667 47.2681C90.2461 47.2681 89.9514 47.346 89.6827 47.502C89.4227 47.6494 89.2147 47.853 89.0587 48.113C88.9027 48.373 88.8247 48.6721 88.8247 49.0101Z" fill="#E67E22"/>
<path d="M93.5081 49.0101C93.5081 48.3861 93.6511 47.8401 93.9371 47.3721C94.2317 46.9041 94.6261 46.54 95.1201 46.28C95.6227 46.02 96.1904 45.89 96.8231 45.89C97.4557 45.89 98.0191 46.02 98.5131 46.28C99.0157 46.54 99.4101 46.9041 99.6961 47.3721C99.9907 47.8401 100.138 48.3861 100.138 49.0101C100.138 49.6254 99.9907 50.1714 99.6961 50.648C99.4101 51.116 99.0157 51.4801 98.5131 51.7401C98.0191 52.0001 97.4557 52.1301 96.8231 52.1301C96.1904 52.1301 95.6227 52.0001 95.1201 51.7401C94.6261 51.4801 94.2317 51.116 93.9371 50.648C93.6511 50.1714 93.5081 49.6254 93.5081 49.0101ZM95.2241 49.0101C95.2241 49.3481 95.2934 49.6471 95.4321 49.9071C95.5794 50.1584 95.7744 50.3577 96.0171 50.5051C96.2597 50.6437 96.5284 50.7131 96.8231 50.7131C97.1177 50.7131 97.3864 50.6437 97.6291 50.5051C97.8717 50.3577 98.0624 50.1584 98.2011 49.9071C98.3484 49.6471 98.4221 49.3481 98.4221 49.0101C98.4221 48.6721 98.3484 48.373 98.2011 48.113C98.0624 47.853 97.8717 47.6537 97.6291 47.515C97.3864 47.3764 97.1177 47.307 96.8231 47.307C96.5284 47.307 96.2597 47.3764 96.0171 47.515C95.7744 47.6537 95.5794 47.853 95.4321 48.113C95.2934 48.373 95.2241 48.6721 95.2241 49.0101Z" fill="#E67E22"/>
<path d="M105.262 48.3601C105.262 47.9614 105.184 47.6581 105.028 47.4501C104.872 47.2421 104.621 47.1381 104.274 47.1381C104.04 47.1381 103.832 47.19 103.65 47.294C103.468 47.3894 103.33 47.528 103.234 47.71C103.139 47.892 103.091 48.1087 103.091 48.3601V52H101.401V46.0201H103.091V46.93C103.273 46.592 103.512 46.3364 103.806 46.163C104.11 45.981 104.474 45.89 104.898 45.89C105.609 45.89 106.138 46.0937 106.484 46.501C106.831 46.8997 107.004 47.4587 107.004 48.1781V52H105.262V48.3601Z" fill="#E67E22"/>
<path d="M112.524 48.3601C112.524 47.9614 112.446 47.6581 112.29 47.4501C112.134 47.2421 111.883 47.1381 111.536 47.1381C111.302 47.1381 111.094 47.19 110.912 47.294C110.73 47.3894 110.591 47.528 110.496 47.71C110.401 47.892 110.353 48.1087 110.353 48.3601V52H108.663V46.0201H110.353V46.93C110.535 46.592 110.773 46.3364 111.068 46.163C111.371 45.981 111.735 45.89 112.16 45.89C112.871 45.89 113.399 46.0937 113.746 46.501C114.093 46.8997 114.266 47.4587 114.266 48.1781V52H112.524V48.3601Z" fill="#E67E22"/>
<path d="M118.746 52.1301C118.096 52.1301 117.528 52.0001 117.043 51.7401C116.557 51.4801 116.18 51.1204 115.912 50.661C115.652 50.193 115.522 49.6427 115.522 49.0101C115.522 48.3687 115.652 47.8184 115.912 47.3591C116.18 46.8911 116.557 46.5314 117.043 46.28C117.528 46.02 118.1 45.89 118.759 45.89C119.417 45.89 119.976 46.0114 120.436 46.2541C120.904 46.4881 121.259 46.8347 121.502 47.294C121.744 47.7447 121.866 48.2907 121.866 48.932C121.866 49.01 121.861 49.0924 121.853 49.1791C121.853 49.2657 121.848 49.3351 121.84 49.3871H116.484V48.347H120.371L119.916 48.945C119.95 48.893 119.981 48.8237 120.007 48.737C120.041 48.6417 120.059 48.5637 120.059 48.503C120.059 48.2084 120.002 47.9571 119.89 47.7491C119.786 47.5411 119.634 47.3764 119.435 47.2551C119.235 47.1337 119.001 47.0731 118.733 47.0731C118.403 47.0731 118.126 47.1467 117.901 47.294C117.684 47.4327 117.515 47.645 117.394 47.931C117.281 48.2084 117.22 48.5551 117.212 48.9711C117.212 49.3697 117.268 49.7077 117.381 49.9851C117.502 50.2624 117.68 50.4747 117.914 50.6221C118.148 50.7694 118.429 50.8431 118.759 50.8431C119.131 50.8431 119.448 50.7737 119.708 50.6351C119.976 50.4877 120.197 50.2711 120.371 49.9851L121.84 50.44C121.528 51.0034 121.112 51.4281 120.592 51.7141C120.08 51.9914 119.465 52.1301 118.746 52.1301Z" fill="#E67E22"/>
<path d="M124.41 49.0101C124.41 49.3567 124.488 49.6601 124.644 49.9201C124.8 50.1801 125.008 50.3837 125.268 50.5311C125.536 50.6784 125.831 50.752 126.152 50.752C126.412 50.752 126.663 50.7131 126.906 50.6351C127.148 50.5484 127.365 50.4357 127.556 50.2971C127.755 50.1497 127.907 49.9807 128.011 49.7901V51.5191C127.803 51.7097 127.53 51.8614 127.192 51.974C126.862 52.078 126.477 52.1301 126.035 52.1301C125.402 52.1301 124.83 52.0001 124.319 51.7401C123.816 51.4801 123.417 51.116 123.123 50.648C122.837 50.1714 122.694 49.6254 122.694 49.0101C122.694 48.3861 122.837 47.8401 123.123 47.3721C123.417 46.9041 123.816 46.54 124.319 46.28C124.83 46.02 125.402 45.89 126.035 45.89C126.477 45.89 126.862 45.9464 127.192 46.0591C127.53 46.1631 127.803 46.306 128.011 46.488V48.217C127.907 48.0264 127.751 47.8617 127.543 47.723C127.343 47.5757 127.122 47.463 126.88 47.385C126.637 47.307 126.394 47.2681 126.152 47.2681C125.831 47.2681 125.536 47.346 125.268 47.502C125.008 47.6494 124.8 47.853 124.644 48.113C124.488 48.373 124.41 48.6721 124.41 49.0101Z" fill="#E67E22"/>
<path d="M128.729 46.0201H132.421V47.437H128.729V46.0201ZM129.756 43.94H131.381V52H129.756V43.94Z" fill="#E67E22"/>
</svg>
